<svg xmlns="http://www.w3.org/2000/svg" width="1200" height="630" viewBox="0 0 1200 630">
  <defs>
    <linearGradient id="bg" x1="0" y1="0" x2="1" y2="1">
      <stop offset="0%" stop-color="#111827" />
      <stop offset="100%" stop-color="#1f2937" />
    </linearGradient>
    <radialGradient id="glow" cx="0.75" cy="0.2" r="0.6">
      <stop offset="0%" stop-color="#60a5fa" stop-opacity="0.35" />
      <stop offset="100%" stop-color="#60a5fa" stop-opacity="0" />
    </radialGradient>
  </defs>
  <rect width="1200" height="630" fill="url(#bg)" />
  <rect width="1200" height="630" fill="url(#glow)" />
  <g fill="#ffffff" opacity="0.08">
    <circle cx="120" cy="90" r="3" />
    <circle cx="220" cy="160" r="2" />
    <circle cx="340" cy="110" r="2" />
    <circle cx="520" cy="180" r="3" />
    <circle cx="660" cy="120" r="2" />
    <circle cx="840" cy="200" r="3" />
    <circle cx="980" cy="140" r="2" />
    <circle cx="1080" cy="220" r="3" />
    <circle cx="180" cy="320" r="2" />
    <circle cx="360" cy="280" r="3" />
    <circle cx="560" cy="340" r="2" />
    <circle cx="760" cy="300" r="3" />
    <circle cx="940" cy="360" r="2" />
    <circle cx="1120" cy="320" r="3" />
    <circle cx="140" cy="500" r="2" />
    <circle cx="320" cy="520" r="3" />
    <circle cx="520" cy="480" r="2" />
    <circle cx="720" cy="540" r="3" />
    <circle cx="920" cy="500" r="2" />
    <circle cx="1100" cy="540" r="3" />
  </g>
</svg>
