<svg width="512" height="512" viewBox="0 0 512 512" fill="none" xmlns="http://www.w3.org/2000/svg">
  <rect width="512" height="512" rx="120" fill="url(#gradient)"/>
  <path d="M340 160 C 320 140, 290 130, 256 130 C 186.4 130, 130 186.4, 130 256 C 130 325.6, 186.4 382, 256 382 C 290 382, 320 370, 340 350" stroke="white" stroke-width="50" stroke-linecap="round" fill="none"/>
  <path d="M380 120 L395 150 L425 165 L395 180 L380 210 L365 180 L335 165 L365 150 Z" fill="#FDE047"/>
  <path d="M120 380 L130 400 L150 410 L130 420 L120 440 L110 420 L90 410 L110 400 Z" fill="#FDE047" opacity="0.6"/>
  <defs>
    <linearGradient id="gradient" x1="0" y1="0" x2="512" y2="512" gradientUnits="userSpaceOnUse">
      <stop stop-color="#8B5CF6"/>
      <stop offset="1" stop-color="#3B82F6"/>
    </linearGradient>
  </defs>
</svg>
